<svg width="26" height="26" viewBox="0 0 26 26" fill="none" xmlns="http://www.w3.org/2000/svg">
<path d="M12.0253 0C6.54117 0.00534324 3.70371 0.103459 1.90358 1.90358C0.103459 3.70371 0.00534324 6.54117 0 12.0253H6.38786C5.93158 11.4553 5.59065 10.7831 5.40474 10.0394C4.70499 7.24036 7.24036 4.70499 10.0394 5.40474C10.7831 5.59065 11.4553 5.93158 12.0253 6.38786V0Z" fill="white"/>
<path d="M0 13.9753C0.00534324 19.4594 0.103459 22.2968 1.90358 24.0969C3.70371 25.897 6.54117 25.9952 12.0253 26.0005V15.7611C11.0116 17.7857 8.91814 19.1756 6.49998 19.1756C5.96148 19.1756 5.52493 18.739 5.52493 18.2005C5.52493 17.662 5.96148 17.2255 6.49998 17.2255C8.49789 17.2255 10.1719 15.8387 10.6121 13.9753H0Z" fill="white"/>
<path d="M13.9756 26.0005C19.4596 25.9952 22.297 25.897 24.0972 24.0969C25.8972 22.2968 25.9954 19.4594 26.0007 13.9753H15.3886C15.8288 15.8387 17.5029 17.2255 19.5008 17.2255C20.0393 17.2255 20.4759 17.662 20.4759 18.2005C20.4759 18.739 20.0393 19.1756 19.5008 19.1756C17.0826 19.1756 14.9891 17.7857 13.9756 15.7611V26.0005Z" fill="white"/>
<path d="M26.0007 12.0253C25.9954 6.54117 25.8972 3.70371 24.0972 1.90358C22.297 0.103459 19.4596 0.00534324 13.9756 0V6.38786C14.5455 5.93158 15.2178 5.59065 15.9613 5.40474C18.7604 4.70499 21.2958 7.24036 20.596 10.0394C20.4101 10.7831 20.0692 11.4553 19.6129 12.0253H26.0007Z" fill="white"/>
<path d="M9.56619 7.2966C11.0112 7.65786 12.025 8.95624 12.025 10.4457V12.0253H10.4455C8.956 12.0253 7.65762 11.0115 7.29636 9.56644C6.95365 8.19561 8.19536 6.95389 9.56619 7.2966Z" fill="white"/>
<path d="M13.9756 10.4457V12.0253H15.555C17.0445 12.0253 18.3429 11.0115 18.7042 9.56644C19.0469 8.19561 17.8052 6.95389 16.4344 7.2966C14.9892 7.65786 13.9756 8.95624 13.9756 10.4457Z" fill="white"/>
</svg>
