<svg width="87" height="87" viewBox="0 0 87 87" fill="none" xmlns="http://www.w3.org/2000/svg">
<path d="M23.25 43.5L40.6071 57.9643L63.75 29.0357M43.5 84C38.1815 84 32.915 82.9524 28.0013 80.9171C23.0876 78.8818 18.6229 75.8986 14.8622 72.1378C11.1014 68.377 8.11819 63.9124 6.08288 58.9987C4.04756 54.085 3 48.8185 3 43.5C3 38.1815 4.04756 32.915 6.08288 28.0013C8.11819 23.0876 11.1014 18.6229 14.8622 14.8622C18.6229 11.1014 23.0876 8.11819 28.0013 6.08288C32.915 4.04756 38.1815 3 43.5 3C54.2413 3 64.5426 7.26695 72.1378 14.8622C79.733 22.4574 84 32.7587 84 43.5C84 54.2413 79.733 64.5426 72.1378 72.1378C64.5426 79.733 54.2413 84 43.5 84Z" stroke="#F8F8F8" stroke-width="5"/>
</svg>
