<svg width="38" height="26" viewBox="0 0 38 26" fill="none" xmlns="http://www.w3.org/2000/svg">
<path d="M35.6022 10.4H36.7333C37.4325 10.4 38 9.8176 38 9.1V3.9C38 1.7459 36.2989 0 34.2 0H25.3333V1.95C25.3333 2.3088 25.0496 2.6 24.7 2.6C24.3504 2.6 24.0667 2.3088 24.0667 1.95V0H3.8C1.70113 0 0 1.7459 0 3.9V9.1C0 9.8176 0.567467 10.4 1.26667 10.4H2.3978C3.6594 10.4 4.8298 11.2853 5.03247 12.5632C5.2896 14.1921 4.07233 15.6 2.53333 15.6H1.26667C0.567467 15.6 0 16.1824 0 16.9V22.1C0 24.2541 1.70113 26 3.8 26H24.0667V24.05C24.0667 23.6912 24.3504 23.4 24.7 23.4C25.0496 23.4 25.3333 23.6912 25.3333 24.05V26H34.2C36.2989 26 38 24.2541 38 22.1V16.9C38 16.1824 37.4325 15.6 36.7333 15.6H35.4667C33.9277 15.6 32.7104 14.1921 32.9675 12.5632C33.1702 11.2853 34.3406 10.4 35.6022 10.4ZM18.3667 15.6H12.0333C11.6837 15.6 11.4 15.3088 11.4 14.95C11.4 14.5912 11.6837 14.3 12.0333 14.3H18.3667C18.7163 14.3 19 14.5912 19 14.95C19 15.3088 18.7163 15.6 18.3667 15.6ZM18.3667 13H12.0333C11.6837 13 11.4 12.7088 11.4 12.35C11.4 11.9912 11.6837 11.7 12.0333 11.7H18.3667C18.7163 11.7 19 11.9912 19 12.35C19 12.7088 18.7163 13 18.3667 13ZM18.3667 10.4H12.0333C11.6837 10.4 11.4 10.1088 11.4 9.75C11.4 9.3912 11.6837 9.1 12.0333 9.1H18.3667C18.7163 9.1 19 9.3912 19 9.75C19 10.1088 18.7163 10.4 18.3667 10.4ZM25.3333 21.45C25.3333 21.8088 25.0496 22.1 24.7 22.1C24.3504 22.1 24.0667 21.8088 24.0667 21.45V20.15C24.0667 19.7912 24.3504 19.5 24.7 19.5C25.0496 19.5 25.3333 19.7912 25.3333 20.15V21.45ZM25.3333 17.55C25.3333 17.9088 25.0496 18.2 24.7 18.2C24.3504 18.2 24.0667 17.9088 24.0667 17.55V16.25C24.0667 15.8912 24.3504 15.6 24.7 15.6C25.0496 15.6 25.3333 15.8912 25.3333 16.25V17.55ZM25.3333 13.65C25.3333 14.0088 25.0496 14.3 24.7 14.3C24.3504 14.3 24.0667 14.0088 24.0667 13.65V12.35C24.0667 11.9912 24.3504 11.7 24.7 11.7C25.0496 11.7 25.3333 11.9912 25.3333 12.35V13.65ZM25.3333 9.75C25.3333 10.1088 25.0496 10.4 24.7 10.4C24.3504 10.4 24.0667 10.1088 24.0667 9.75V8.45C24.0667 8.0912 24.3504 7.8 24.7 7.8C25.0496 7.8 25.3333 8.0912 25.3333 8.45V9.75ZM25.3333 5.85C25.3333 6.2088 25.0496 6.5 24.7 6.5C24.3504 6.5 24.0667 6.2088 24.0667 5.85V4.55C24.0667 4.1912 24.3504 3.9 24.7 3.9C25.0496 3.9 25.3333 4.1912 25.3333 4.55V5.85Z" fill="white"/>
</svg>
